<svg xmlns="http://www.w3.org/2000/svg" viewBox="0 0 1200 400" width="1200" height="400">
  <path stroke="#1a2a6c" stroke-width="4" stroke-linejoin="round" d="M265.802 288.113c-2.799 3.42-6.153 2.566-9.2 2.571-42.18.055-84.36.067-126.538.01-3.007-.003-6.73 1.19-8.68-2.027-2.091-3.443.485-6.355 2.23-9.187 35.598-57.79 71.211-115.571 106.8-173.37 1.442-2.343 3.47-4.472 3.47-7.464-.399-.413-.769-1.14-1.158-1.15-23.181-.634-46.424-2.314-69.47 1.365-13.181 2.104-20.09 11.194-23.322 22.989-1.908 6.96-2.853 14.166-4.18 21.272-.572 3.056-.9 6.63-5.046 6.603-4.512-.027-4.236-3.739-4.234-6.796.02-16.127.521-32.255-.885-48.363-.552-6.31 4.563-5.286 8.365-5.293 31.274-.067 62.55-.026 93.825-.028 10.618 0 21.232-.052 31.85-.034 11.33.019 12.682 2.163 7.035 11.388-26.497 43.293-53.054 86.553-79.548 129.85-10.214 16.693-20.319 33.449-30.692 50.532 1.63.895 2.562 1.857 3.485 1.849 21.478-.186 42.968 1.55 64.436-1.052 14.344-1.739 22.744-9.618 26.88-22.422 2.222-6.882 3.885-13.91 4.398-21.174.248-3.521.32-8.143 5.504-7.82 4.899.303 3.877 4.778 3.82 7.93-.3 16.402-.315 32.79.855 49.819m645.093-62.996c-.276 17.95-4.73 33.545-16.3 47.153-22.593 26.571-81.982 32.527-100.615-15.834-21.466-55.717-3.554-145.26 77.905-171.268 4.438-1.416 11.262-5.995 13.71-.094 2.804 6.76-5.939 6.77-10.021 8.384-33.992 13.441-48.703 40.518-55.603 73.133-.838 3.964-2.765 7.981-1.482 12.336 2.651.778 3.335-1.63 4.563-2.8 20.996-20.007 53.233-18.561 72.386 3.247 11.408 12.991 14.999 28.451 15.457 45.743m-44.376 51.792c1.631-1.934 3.81-3.633 4.808-5.836 12.979-28.658 13.893-57.606.028-86.065-4.918-10.095-16.052-13.98-26.043-11.83-15.33 3.298-27.987 13.707-28.737 25.246-.771 11.894-.816 23.945.255 35.806 1.17 12.954 3.53 25.863 11.086 37.216 9.835 14.772 23.626 17.151 38.603 5.463M369.444 141.064c22.482 6.642 31.31 17.635 31.584 39.646.327 26.432.203 52.869.315 79.304.014 3.333-.027 6.706.472 9.987 1.48 9.718 5.438 11.757 14.833 7.888 2.762-1.139 5.908-4.028 8.11.063 2.105 3.91-2.018 5.201-4.447 6.821-8.774 5.853-18.618 7.048-28.835 5.377-10.371-1.697-15.611-8.581-17.486-17.94-3.06-.625-3.897 1.56-5.171 2.864-13.945 14.286-31.495 17.615-50.537 14.819-29.594-4.347-31.917-39.792-18.806-54.663 7.353-8.338 16.735-13.433 26.965-17.327 10.94-4.164 21.982-8.076 33.003-12.037 9.802-3.523 14.854-9.835 13.741-20.397-.55-5.24-.034-10.576-.37-15.846-.878-13.802-5.975-19.675-20.028-21.899-10.731-1.698-20.975.042-29.602 6.273-.39 2.91 1.508 3.557 2.698 4.642 8.477 7.735 9.843 17.972 3.332 25.175-5.62 6.218-16.81 7.532-23.54 2.765-7.593-5.382-9.654-18.357-3.693-26.439 7.193-9.754 17.805-14.618 29.35-17.766 12.329-3.36 24.796-4.217 38.11-1.31m3.61 113.878c-.337-15 1.074-30.08-1.046-45.745-11.338 5.217-21.52 9.651-31.467 14.535-16.335 8.02-21.9 18.075-20.328 35.776.957 10.785 8.351 17.858 19.451 18.605 14.051.946 27.607-7.92 33.39-23.171m664.588-110.27c32.027 12.543 46.029 46.292 42.564 77.92-2.872 26.212-13.776 47.504-37.811 61.027-45.637 25.68-102.883-4.107-106.84-55.084-.936-12.081-.627-23.898 2.704-35.459 12.4-43.06 55.39-64.131 99.383-48.404m-22.79 139.485c11.417-2.555 19.02-9.606 24.758-19.177 7.427-12.384 9.64-26.096 10.832-39.944 1.608-18.737.382-37.358-8.102-54.632-7.074-14.398-19.06-23.303-35.91-23.102-16.2.193-26.844 9.913-32.297 23.745-11.328 28.731-12.185 58.257-2.029 87.416 6.411 18.406 21.662 27.09 42.748 25.694m-483.913-105.15c-14.258-5.844-16.3-15.041-6.695-29.551-8.347-1.738-14.654 1.768-20.054 6.645-12.757 11.521-19.63 26.067-20.147 42.85-.606 19.729-.193 39.487-.178 59.231.014 16.494 4.066 21.106 20.509 24.435 3.45.7 9.919-1.193 9.335 4.502-.594 5.794-6.888 3.448-10.749 3.49-20.073.22-40.15.162-60.226.06-3.211-.017-7.886 1.299-8.678-3.148-.904-5.079 4.215-4.132 7.232-4.887 10.521-2.63 14.03-6.295 14.092-16.933.185-31.701.24-63.406-.067-95.108-.13-13.497-3.203-16.951-16.754-21.566-2.621-.892-5.221-1.553-4.655-4.8.577-3.304 3.608-3.045 6.16-3.137 12.59-.45 25.216.815 37.79-.951 4.629-.652 5.95 2.377 5.963 6.211.024 6.357.007 12.715.007 20.992 6.013-6.575 9.638-12.807 15.136-17.454 10.955-9.255 23.121-13.353 37.301-8.349 7.98 2.816 13.628 8.172 15.658 16.45 2.928 11.943-6.078 21.248-20.98 21.018m196.859 68.147c-1.786-6.429-4.736-11.501-8.984-15.766-8.069-8.1-17.54-9.684-28.359-5.699-3.595 1.326-8.183 1.587-8.92-3.332-.7-4.65 3.608-6.526 7.422-6.001 13.655 1.875 19.69-7.1 25.165-16.349 6.543-11.055 8.95-22.96 3.549-35.193-3.635-8.239-11.472-10.675-19.789-10.92-15.315-.456-26.86 6.498-35.528 18.427-1.86 2.558-3.252 7.148-7.581 4.492-4.278-2.625-.655-6.053.866-8.681 13.357-23.103 39.703-33.676 66.187-26.733 27.27 7.148 35.943 34.956 17.313 55.736-7.222 8.055-15.842 14.443-27.901 19.962 5.24 1.175 8.634 1.878 11.997 2.702 32.052 7.844 45.405 36.629 29.833 64.97-11.04 20.094-29.993 30.926-50.94 38.876-13.925 5.284-28.376 8.873-43.503 8.72-3.052-.031-7.911 1.448-7.896-3.676.014-4.231 4.41-3.533 7.38-3.765 13.038-1.019 25.326-4.418 36.92-10.32 26.82-13.65 38.725-37.669 32.769-67.452m-96.028 43.111c-21.052.307-41.413.4-61.775.434-2.807.004-6.316.404-6.876-3.322-.592-3.95 2.979-3.941 5.726-4.649 13.18-3.39 15.664-6.439 15.695-19.867.07-30.038.078-60.078-.003-90.119-.041-15.255-2.23-18.182-17.216-23.672-2.25-.825-4.577-1.377-4.407-4.217.203-3.372 2.896-3.752 5.602-3.764 13.173-.053 26.372.496 39.326-2.752 3.211-.806 4.784 1.22 4.982 4.178.165 2.495.19 5 .19 7.502.016 37.828-.016 75.656.039 113.482.019 13.116 2.178 15.81 15.182 19.182 4.226 1.096 8.49 1.825 3.537 7.584m-45.332-183.112c-9.115-8.095-11.388-17.302-6.775-25.467 4.705-8.332 15.657-12.155 24.215-8.454 9.514 4.116 14.452 14.208 11.365 23.226-3.393 9.912-13.559 15.56-23.526 12.978-1.63-.423-3.142-1.28-5.28-2.283" fill="#1a2a6c"/>
</svg>
