<?xml version="1.0" encoding="UTF-8"?>
<svg xmlns="http://www.w3.org/2000/svg" viewBox="0 0 1200 400" role="img" aria-label="Zari360">
<style>.zari{fill:#1A2A6C}.num{fill:#C9A227}</style>
<g transform="translate(120 58.072146658781804) scale(1.7219730941704037 1.6697394510731551) translate(-233 -425)">
    <path class="zari" opacity="1.000000" stroke="none" d="&#xA;M317.671997,562.769287 &#xA;&#x9;C316.046814,564.818420 314.099121,564.307495 312.328522,564.309875 &#xA;&#x9;C287.834076,564.342712 263.339600,564.349854 238.845184,564.316345 &#xA;&#x9;C237.098969,564.313965 234.937119,565.028748 233.803665,563.102417 &#xA;&#x9;C232.590195,561.040161 234.086472,559.295715 235.099045,557.600464 &#xA;&#x9;C255.771713,522.989624 276.454498,488.384827 297.120880,453.770203 &#xA;&#x9;C297.959167,452.366150 299.137421,451.091003 299.136444,449.298950 &#xA;&#x9;C298.904633,449.051514 298.690338,448.617035 298.463989,448.610657 &#xA;&#x9;C285.001831,448.230652 271.503967,447.225220 258.120941,449.427765 &#xA;&#x9;C250.465668,450.687683 246.454330,456.131958 244.576797,463.196411 &#xA;&#x9;C243.469269,467.363586 242.919739,471.680298 242.148529,475.935059 &#xA;&#x9;C241.816757,477.765381 241.627289,479.905579 239.218140,479.890381 &#xA;&#x9;C236.598663,479.873901 236.758240,477.651428 236.760376,475.819183 &#xA;&#x9;C236.771652,466.161682 237.063370,456.503143 236.246216,446.855865 &#xA;&#x9;C235.926163,443.077271 238.895782,443.690430 241.103897,443.685669 &#xA;&#x9;C259.266357,443.646423 277.428894,443.670166 295.591431,443.669373 &#xA;&#x9;C301.756683,443.669128 307.921936,443.637787 314.087158,443.648682 &#xA;&#x9;C320.666809,443.660309 321.452209,444.944153 318.173279,450.468994 &#xA;&#x9;C302.785217,476.397308 287.363281,502.305450 271.977295,528.234985 &#xA;&#x9;C266.044983,538.232605 260.176086,548.267822 254.152969,558.498779 &#xA;&#x9;C255.099991,559.035461 255.641006,559.611023 256.176788,559.606201 &#xA;&#x9;C268.649658,559.494568 281.129913,560.534729 293.596375,558.976013 &#xA;&#x9;C301.926117,557.934509 306.805145,553.215637 309.206635,545.548096 &#xA;&#x9;C310.497803,541.425537 311.462708,537.216614 311.760559,532.866943 &#xA;&#x9;C311.904968,530.758179 311.946594,527.990417 314.956696,528.183167 &#xA;&#x9;C317.801788,528.365356 317.209320,531.044922 317.175934,532.933838 &#xA;&#x9;C317.002136,542.756287 316.993225,552.571472 317.671997,562.769287 &#xA;z"></path>
<path class="num" opacity="1.000000" stroke="none" d="&#xA;M692.296936,525.041321 &#xA;&#x9;C692.137268,535.790527 689.549866,545.131287 682.831177,553.280762 &#xA;&#x9;C669.711609,569.194214 635.222107,572.761353 624.401489,543.798462 &#xA;&#x9;C611.934692,510.429047 622.337402,456.802460 669.643005,441.226410 &#xA;&#x9;C672.219971,440.377869 676.183655,437.635956 677.604980,441.169800 &#xA;&#x9;C679.233276,445.218323 674.156494,445.223999 671.785034,446.191101 &#xA;&#x9;C652.044495,454.241364 643.502197,470.456970 639.495056,489.989716 &#xA;&#x9;C639.007996,492.363953 637.888611,494.770416 638.633545,497.378235 &#xA;&#x9;C640.173889,497.843933 640.571350,496.401611 641.284607,495.700684 &#xA;&#x9;C653.476501,483.719330 672.198059,484.585083 683.321472,497.646271 &#xA;&#x9;C689.946411,505.425201 692.030457,514.684692 692.296936,525.041321 &#xA;M666.527161,556.058594 &#xA;&#x9;C667.473755,554.900757 668.739441,553.883118 669.318726,552.564026 &#xA;&#x9;C676.855774,535.401123 677.386658,518.064758 669.335022,501.019745 &#xA;&#x9;C666.479126,494.973999 660.012634,492.647156 654.211182,493.934631 &#xA;&#x9;C645.309265,495.910217 637.957886,502.143616 637.522949,509.054474 &#xA;&#x9;C637.074829,516.177551 637.049194,523.395447 637.670776,530.499146 &#xA;&#x9;C638.349670,538.256714 639.720276,545.987732 644.109436,552.787476 &#xA;&#x9;C649.820007,561.634338 657.828369,563.059265 666.527161,556.058594 &#xA;z"></path>
<path class="zari" opacity="1.000000" stroke="none" d="&#xA;M377.859497,474.702881 &#xA;&#x9;C390.916260,478.681183 396.043030,485.265381 396.201935,498.447235 &#xA;&#x9;C396.392792,514.277161 396.320374,530.110229 396.385132,545.941833 &#xA;&#x9;C396.393280,547.937561 396.368591,549.958313 396.658630,551.923279 &#xA;&#x9;C397.517853,557.743896 399.817230,558.964050 405.272736,556.646790 &#xA;&#x9;C406.876953,555.965393 408.704346,554.234619 409.983093,556.685242 &#xA;&#x9;C411.204681,559.026245 408.810699,559.800415 407.400238,560.770386 &#xA;&#x9;C402.304749,564.274536 396.587677,564.991089 390.654938,563.990051 &#xA;&#x9;C384.631622,562.973755 381.588715,558.851074 380.499664,553.245667 &#xA;&#x9;C378.722748,552.872131 378.236908,554.179932 377.497345,554.961304 &#xA;&#x9;C369.399384,563.516846 359.207642,565.510376 348.148804,563.835693 &#xA;&#x9;C330.963013,561.233154 329.613586,540.004822 337.227753,531.099060 &#xA;&#x9;C341.497681,526.104797 346.945679,523.054382 352.886749,520.721863 &#xA;&#x9;C359.239807,518.227600 365.652985,515.885376 372.053406,513.513245 &#xA;&#x9;C377.744720,511.403870 380.678528,507.623322 380.033539,501.296631 &#xA;&#x9;C379.713684,498.158722 380.012421,494.962738 379.817505,491.806183 &#xA;&#x9;C379.307129,483.540710 376.347595,480.024353 368.186920,478.692169 &#xA;&#x9;C361.954803,477.674805 356.005981,478.717285 350.995728,482.448547 &#xA;&#x9;C350.770294,484.192444 351.871826,484.578430 352.563446,485.229309 &#xA;&#x9;C357.486115,489.861359 358.279083,495.992096 354.497986,500.305695 &#xA;&#x9;C351.233826,504.029541 344.736053,504.817139 340.828888,501.962494 &#xA;&#x9;C336.417297,498.739319 335.221222,490.967712 338.682526,486.127563 &#xA;&#x9;C342.859558,480.286438 349.022400,477.373291 355.726807,475.488281 &#xA;&#x9;C362.887054,473.475098 370.127441,472.961914 377.859497,474.702881 &#xA;M379.955078,542.904358 &#xA;&#x9;C379.759521,533.921082 380.579407,524.889648 379.347992,515.507935 &#xA;&#x9;C372.764313,518.631836 366.850769,521.287781 361.073547,524.213013 &#xA;&#x9;C351.588043,529.015930 348.355896,535.038391 349.268829,545.639404 &#xA;&#x9;C349.825012,552.098022 354.119171,556.333740 360.564606,556.781433 &#xA;&#x9;C368.725220,557.348267 376.596680,552.037781 379.955078,542.904358 &#xA;z"></path>
<path class="num" opacity="1.000000" stroke="none" d="&#xA;M765.901672,476.864014 &#xA;&#x9;C784.500916,484.376495 792.631714,504.588226 790.619568,523.529663 &#xA;&#x9;C788.951965,539.227783 782.619934,551.979553 768.661743,560.078979 &#xA;&#x9;C742.158875,575.457520 708.915283,557.618347 706.617310,527.088135 &#xA;&#x9;C706.072693,519.853760 706.252625,512.777405 708.186523,505.852509 &#xA;&#x9;C715.388000,480.065247 740.354248,467.444519 765.901672,476.864014 &#xA;M752.666565,560.401367 &#xA;&#x9;C759.296631,558.871643 763.712402,554.647583 767.044922,548.916077 &#xA;&#x9;C771.357544,541.498840 772.643250,533.287415 773.334351,524.993896 &#xA;&#x9;C774.269470,513.771790 773.557434,502.620056 768.629700,492.275116 &#xA;&#x9;C764.521973,483.651672 757.561340,478.318909 747.775635,478.439453 &#xA;&#x9;C738.368225,478.555359 732.187378,484.375977 729.020203,492.660095 &#xA;&#x9;C722.441589,509.867188 721.943848,527.549622 727.841736,545.012939 &#xA;&#x9;C731.564514,556.035767 740.422180,561.236877 752.666565,560.401367 &#xA;z"></path>
<path class="zari" opacity="1.000000" stroke="none" d="&#xA;M471.644196,497.426727 &#xA;&#x9;C463.363922,493.927429 462.178375,488.419220 467.755859,479.728516 &#xA;&#x9;C462.908539,478.687592 459.246338,480.787964 456.109650,483.709869 &#xA;&#x9;C448.702393,490.609741 444.709961,499.320282 444.410339,509.372192 &#xA;&#x9;C444.058167,521.186951 444.298126,533.019775 444.307190,544.844788 &#xA;&#x9;C444.314728,554.723083 446.668488,557.485779 456.217865,559.479431 &#xA;&#x9;C458.220886,559.897522 461.977356,558.763611 461.638000,562.175354 &#xA;&#x9;C461.292877,565.645142 457.637360,564.240479 455.395874,564.265686 &#xA;&#x9;C443.738800,564.396851 432.079346,564.361633 420.421143,564.301453 &#xA;&#x9;C418.556030,564.291809 415.841797,565.078552 415.381683,562.415588 &#xA;&#x9;C414.856171,559.374451 417.829132,559.940918 419.581696,559.488953 &#xA;&#x9;C425.690155,557.913696 427.729095,555.718872 427.765015,549.347656 &#xA;&#x9;C427.872101,530.361816 427.903595,511.373840 427.725983,492.388947 &#xA;&#x9;C427.650360,484.305481 425.865265,482.235870 417.996735,479.472473 &#xA;&#x9;C416.474396,478.937866 414.963898,478.541168 415.293182,476.596771 &#xA;&#x9;C415.628174,474.618866 417.387543,474.773956 418.869781,474.719086 &#xA;&#x9;C426.181519,474.448364 433.514282,475.207458 440.815674,474.149445 &#xA;&#x9;C443.504059,473.759918 444.271149,475.573395 444.279388,477.868652 &#xA;&#x9;C444.293091,481.676208 444.283142,485.483826 444.283142,490.440857 &#xA;&#x9;C447.774994,486.503448 449.880402,482.770111 453.073273,479.988098 &#xA;&#x9;C459.434631,474.445404 466.499695,471.990936 474.734863,474.987762 &#xA;&#x9;C479.369049,476.674133 482.648743,479.882080 483.827789,484.840057 &#xA;&#x9;C485.528534,491.991821 480.298004,497.564972 471.644196,497.426727 &#xA;z"></path>
<path class="num" opacity="1.000000" stroke="none" d="&#xA;M585.966431,538.239380 &#xA;&#x9;C584.929138,534.390564 583.216003,531.351685 580.749268,528.798218 &#xA;&#x9;C576.062866,523.947021 570.562866,522.998535 564.280396,525.385376 &#xA;&#x9;C562.192261,526.178772 559.528381,526.334778 559.099243,523.389221 &#xA;&#x9;C558.693481,520.603577 561.195007,519.481140 563.409119,519.794739 &#xA;&#x9;C571.339966,520.917847 574.844177,515.543274 578.023743,510.003906 &#xA;&#x9;C581.824097,503.382935 583.220825,496.252838 580.085144,488.926605 &#xA;&#x9;C577.973633,483.993134 573.423340,482.533844 568.593323,482.386230 &#xA;&#x9;C559.699341,482.114471 552.994995,486.278931 547.960693,493.422943 &#xA;&#x9;C546.881165,494.954865 546.072205,497.704498 543.557800,496.112885 &#xA;&#x9;C541.073853,494.540558 543.178894,492.488159 544.061218,490.914459 &#xA;&#x9;C551.818481,477.077972 567.117798,470.746399 582.497986,474.904083 &#xA;&#x9;C598.334778,479.185181 603.371033,495.838562 592.551819,508.283447 &#xA;&#x9;C588.357849,513.107605 583.352112,516.933472 576.348633,520.239075 &#xA;&#x9;C579.391663,520.943237 581.363098,521.364075 583.316345,521.856995 &#xA;&#x9;C601.929932,526.554749 609.683716,543.793640 600.640625,560.768311 &#xA;&#x9;C594.229675,572.802246 583.222595,579.289001 571.059448,584.049988 &#xA;&#x9;C562.972412,587.215393 554.580139,589.364014 545.795227,589.272644 &#xA;&#x9;C544.022644,589.254272 541.200928,590.139893 541.210449,587.070862 &#xA;&#x9;C541.218384,584.537048 543.771118,584.955261 545.495667,584.816223 &#xA;&#x9;C553.067383,584.205444 560.202881,582.170288 566.936707,578.635864 &#xA;&#x9;C582.510986,570.461487 589.424744,556.075073 585.966431,538.239380 &#xA;z"></path>
<path class="zari" opacity="1.000000" stroke="none" d="&#xA;M530.200745,564.058472 &#xA;&#x9;C517.974304,564.241699 506.149658,564.298401 494.324921,564.317139 &#xA;&#x9;C492.695892,564.319702 490.656891,564.560425 490.332092,562.328003 &#xA;&#x9;C489.988007,559.962891 492.062866,559.967285 493.656921,559.544434 &#xA;&#x9;C501.311005,557.514099 502.754456,555.687622 502.772217,547.646057 &#xA;&#x9;C502.811920,529.655579 502.816711,511.664856 502.770081,493.674408 &#xA;&#x9;C502.746399,484.538116 501.475250,482.785217 492.772461,479.496521 &#xA;&#x9;C491.466125,479.002899 490.113800,478.672424 490.213043,476.971436 &#xA;&#x9;C490.330902,474.952332 491.895447,474.723846 493.465790,474.717163 &#xA;&#x9;C501.115387,474.684570 508.780609,475.014252 516.304077,473.068695 &#xA;&#x9;C518.169250,472.586334 519.082458,473.799225 519.196960,475.570557 &#xA;&#x9;C519.293457,477.064545 519.307739,478.565765 519.308289,480.063782 &#xA;&#x9;C519.317017,502.718567 519.298584,525.373352 519.330200,548.028137 &#xA;&#x9;C519.341125,555.883240 520.594543,557.495911 528.147217,559.515503 &#xA;&#x9;C530.601440,560.171753 533.077515,560.608887 530.200745,564.058472 &#xA;z"></path>
<path class="zari" opacity="1.000000" stroke="none" d="&#xA;M503.874817,454.393494 &#xA;&#x9;C498.582245,449.545074 497.262054,444.031097 499.940582,439.140503 &#xA;&#x9;C502.673431,434.150757 509.032593,431.861603 514.002563,434.078369 &#xA;&#x9;C519.528198,436.543030 522.396484,442.587006 520.603394,447.987671 &#xA;&#x9;C518.632446,453.924255 512.729004,457.306335 506.940918,455.759766 &#xA;&#x9;C505.993927,455.506744 505.116425,454.993683 503.874817,454.393494 &#xA;z"></path>
  </g>
</svg>
