<?xml version="1.0" encoding="UTF-8"?>
<svg xmlns="http://www.w3.org/2000/svg" viewBox="0 0 1024 1024" width="1024" height="1024">
  <g transform="translate(153.5 153.5) scale(3.497560975609756 3.585) translate(-410 -413)">
    <path fill="#1A2A6C" opacity="1.000000" stroke="none" d="&#xA;M528.671204,503.645081 &#xA;&#x9;C517.090515,518.036133 505.723969,532.140198 493.966736,546.729065 &#xA;&#x9;C501.035675,551.133301 508.106873,552.797974 515.687439,552.154236 &#xA;&#x9;C528.617004,551.056091 538.677185,544.922546 545.954163,534.231506 &#xA;&#x9;C547.286987,532.273376 548.615906,531.650146 550.937805,532.723083 &#xA;&#x9;C553.322266,533.824890 555.934998,534.432556 558.541016,535.287048 &#xA;&#x9;C559.191406,537.774292 557.315186,539.315674 556.203125,540.992188 &#xA;&#x9;C541.826294,562.665833 514.470947,570.382507 491.000671,559.096008 &#xA;&#x9;C486.785309,557.068909 484.474701,557.569641 481.932343,561.250488 &#xA;&#x9;C479.152069,565.275757 475.870575,568.954834 472.721313,572.892639 &#xA;&#x9;C475.284943,574.579712 477.499451,573.968811 479.579803,573.971375 &#xA;&#x9;C517.407532,574.018066 555.235352,574.009888 593.063110,574.024231 &#xA;&#x9;C600.289551,574.026978 607.172668,575.228455 611.838562,581.431885 &#xA;&#x9;C616.518005,587.653259 617.331909,594.551025 614.026062,601.700684 &#xA;&#x9;C610.696838,608.900757 604.649658,612.210388 597.037659,613.073547 &#xA;&#x9;C595.884583,613.204285 594.706787,613.129639 593.540466,613.129761 &#xA;&#x9;C540.714905,613.136169 487.889282,613.137939 435.063690,613.147217 &#xA;&#x9;C427.019012,613.148621 419.842468,611.067749 414.919830,604.213196 &#xA;&#x9;C408.873108,595.793518 409.095490,586.740601 415.501221,577.240967 &#xA;&#x9;C423.883728,564.809631 432.371338,552.449341 440.796295,540.046631 &#xA;&#x9;C444.728271,534.258240 448.598389,528.427795 452.533936,522.641907 &#xA;&#x9;C457.650879,515.119202 462.186096,507.714600 464.462891,498.376953 &#xA;&#x9;C469.381195,478.205811 488.156158,462.102295 513.119019,461.756470 &#xA;&#x9;C521.314148,461.642914 529.333191,463.474335 536.712830,467.348938 &#xA;&#x9;C538.761047,468.424286 540.708984,469.278290 542.468811,466.989075 &#xA;&#x9;C546.200928,462.134186 550.806213,457.962555 554.249451,452.025208 &#xA;&#x9;C550.064819,452.025208 546.318237,452.026581 542.571716,452.025024 &#xA;&#x9;C506.077118,452.009613 469.582550,451.985168 433.087952,451.986938 &#xA;&#x9;C427.457886,451.987213 422.128937,451.113464 417.666534,447.314514 &#xA;&#x9;C411.461243,442.031860 409.227386,435.267181 411.375153,427.548767 &#xA;&#x9;C413.755554,418.994110 419.876556,414.291595 428.669830,413.134094 &#xA;&#x9;C429.985321,412.960876 431.328247,412.942963 432.658508,412.942444 &#xA;&#x9;C485.650726,412.921661 538.642944,412.890289 591.635193,412.914276 &#xA;&#x9;C604.636292,412.920166 613.350769,419.902710 615.581116,431.829865 &#xA;&#x9;C616.514404,436.821228 615.654480,441.643372 612.921448,445.737244 &#xA;&#x9;C601.269836,463.190521 589.383423,480.487030 577.564392,497.828308 &#xA;&#x9;C577.297791,498.219482 576.814331,498.462799 576.111877,499.036652 &#xA;&#x9;C573.249451,496.994080 570.333862,494.913513 567.543518,492.922302 &#xA;&#x9;C567.100342,491.157684 568.244873,490.231598 568.958923,489.175201 &#xA;&#x9;C579.406494,473.718994 589.846863,458.257782 600.362183,442.847717 &#xA;&#x9;C602.898804,439.130341 605.097839,435.454956 602.553955,430.897308 &#xA;&#x9;C600.053467,426.417480 595.965088,425.299103 591.129761,425.303619 &#xA;&#x9;C538.304260,425.352997 485.478638,425.333252 432.653046,425.312073 &#xA;&#x9;C430.111481,425.311066 427.691193,425.427063 425.618591,427.221527 &#xA;&#x9;C423.336121,429.197693 422.753998,431.644989 423.378601,434.441895 &#xA;&#x9;C424.032288,437.368927 426.071899,439.007751 428.897949,439.515900 &#xA;&#x9;C430.516937,439.806946 432.220245,439.657837 433.885590,439.658081 &#xA;&#x9;C477.212585,439.664917 520.539551,439.665497 563.866577,439.666626 &#xA;&#x9;C567.364929,439.666718 571.240784,439.167999 572.951355,443.200012 &#xA;&#x9;C574.554199,446.977875 572.213318,449.838623 569.948792,452.627869 &#xA;&#x9;C563.446350,460.636932 557.013245,468.702332 550.398254,476.938202 &#xA;&#x9;C553.166260,481.476440 557.610779,484.897949 558.873352,490.375244 &#xA;&#x9;C556.104492,492.624542 552.647522,493.237091 549.605225,493.930695 &#xA;&#x9;C545.550842,494.855072 545.770630,489.057098 541.807312,487.628021 &#xA;&#x9;C537.635742,492.706146 533.260559,498.032104 528.671204,503.645081 &#xA;M562.500061,586.366211 &#xA;&#x9;C529.179260,586.366699 495.858429,586.367737 462.537628,586.367004 &#xA;&#x9;C459.043915,586.366943 455.304749,586.841492 453.404999,582.862671 &#xA;&#x9;C451.491425,578.854858 454.365112,576.240540 456.489532,573.553772 &#xA;&#x9;C462.168060,566.372070 467.969025,559.287292 473.686157,552.135925 &#xA;&#x9;C474.786530,550.759521 476.658508,549.271423 475.042267,547.368408 &#xA;&#x9;C470.305664,541.791260 466.579803,535.626282 464.370087,528.515930 &#xA;&#x9;C463.326538,529.129089 462.940155,529.226685 462.772552,529.473022 &#xA;&#x9;C450.034943,548.195251 437.133789,566.810181 424.685944,585.723450 &#xA;&#x9;C420.007263,592.832153 424.692444,600.609558 433.352875,600.623169 &#xA;&#x9;C487.165771,600.707947 540.978882,600.684387 594.791870,600.641541 &#xA;&#x9;C600.490723,600.636963 603.699585,597.800476 603.622314,593.319580 &#xA;&#x9;C603.546875,588.947510 600.260498,586.395264 594.488403,586.374390 &#xA;&#x9;C584.159119,586.337158 573.829590,586.365845 562.500061,586.366211 &#xA;M500.110168,519.630859 &#xA;&#x9;C510.849579,506.331604 521.588989,493.032349 532.325378,479.736786 &#xA;&#x9;C518.448303,468.562103 493.488373,473.772461 481.828888,489.520477 &#xA;&#x9;C469.131104,506.670837 473.417145,529.274902 484.505341,538.010071 &#xA;&#x9;C484.795044,537.853394 485.167328,537.765198 485.362335,537.529968 &#xA;&#x9;C490.145660,531.759949 494.910187,525.974243 500.110168,519.630859 &#xA;z"></path>
<path fill="#C9A227" opacity="1.000000" stroke="none" d="&#xA;M562.356567,528.859741 &#xA;&#x9;C553.706970,529.664917 547.440125,526.228882 544.488220,519.406677 &#xA;&#x9;C541.862427,513.338196 543.641418,505.284302 548.530640,501.106934 &#xA;&#x9;C554.141907,496.312531 562.080383,495.630554 568.487000,499.789124 &#xA;&#x9;C574.292969,503.557709 576.147949,509.441254 575.077759,515.916016 &#xA;&#x9;C573.950134,522.738831 569.747803,527.235168 562.356567,528.859741 &#xA;z"></path>
  </g>
</svg>